<?xml version="1.0" encoding="UTF-8" standalone="no"?>
<!DOCTYPE svg PUBLIC "-//W3C//DTD SVG 1.1//EN"
 "http://www.w3.org/Graphics/SVG/1.1/DTD/svg11.dtd">
<!-- Generated by graphviz version 2.34.0 (20131025.1729)
 -->
<!-- Title: controllers_diagram Pages: 1 -->
<svg width="1122pt" height="763pt"
 viewBox="0.00 0.00 1121.90 763.40" xmlns="http://www.w3.org/2000/svg" xmlns:xlink="http://www.w3.org/1999/xlink">
<g id="graph0" class="graph" transform="scale(1 1) rotate(0) translate(4 759.4)">
<title>controllers_diagram</title>
<polygon fill="white" stroke="white" points="-4,4 -4,-759.4 1117.9,-759.4 1117.9,4 -4,4"/>
<!-- _diagram_info -->
<g id="node1" class="node"><title>_diagram_info</title>
<text text-anchor="start" x="688" y="-269" font-family="Times,serif" font-size="13.00">Controllers diagram</text>
<text text-anchor="start" x="688" y="-253.4" font-family="Times,serif" font-size="13.00">Date: Oct 25 2013 &#45; 10:41</text>
<text text-anchor="start" x="688" y="-237.8" font-family="Times,serif" font-size="13.00">Migration version: 20131024212303</text>
<text text-anchor="start" x="688" y="-222.2" font-family="Times,serif" font-size="13.00">Generated by RailRoady 1.1.1</text>
<text text-anchor="start" x="688" y="-206.6" font-family="Times,serif" font-size="13.00">http://railroady.prestonlee.com</text>
</g>
<!-- ApplicationController -->
<g id="node2" class="node"><title>ApplicationController</title>
<path fill="none" stroke="black" d="M222.617,-206.092C222.617,-206.092 401.252,-206.092 401.252,-206.092 407.252,-206.092 413.252,-212.092 413.252,-218.092 413.252,-218.092 413.252,-309.292 413.252,-309.292 413.252,-315.292 407.252,-321.292 401.252,-321.292 401.252,-321.292 222.617,-321.292 222.617,-321.292 216.617,-321.292 210.617,-315.292 210.617,-309.292 210.617,-309.292 210.617,-218.092 210.617,-218.092 210.617,-212.092 216.617,-206.092 222.617,-206.092"/>
<text text-anchor="middle" x="311.934" y="-303.292" font-family="Times,serif" font-size="14.00">ApplicationController</text>
<polyline fill="none" stroke="black" points="210.617,-296.492 413.252,-296.492 "/>
<text text-anchor="start" x="218.617" y="-278.492" font-family="Times,serif" font-size="14.00">_one_time_conditions_valid_50?</text>
<polyline fill="none" stroke="black" points="210.617,-271.692 413.252,-271.692 "/>
<polyline fill="none" stroke="black" points="210.617,-247.692 413.252,-247.692 "/>
<text text-anchor="start" x="218.617" y="-229.692" font-family="Times,serif" font-size="14.00">_layout</text>
<text text-anchor="start" x="218.617" y="-212.892" font-family="Times,serif" font-size="14.00">user_not_authorized</text>
</g>
<!-- CommentsController -->
<g id="node3" class="node"><title>CommentsController</title>
<path fill="none" stroke="black" d="M398.538,-40.5C398.538,-40.5 577.173,-40.5 577.173,-40.5 583.173,-40.5 589.173,-46.5 589.173,-52.5 589.173,-52.5 589.173,-177.3 589.173,-177.3 589.173,-183.3 583.173,-189.3 577.173,-189.3 577.173,-189.3 398.538,-189.3 398.538,-189.3 392.538,-189.3 386.538,-183.3 386.538,-177.3 386.538,-177.3 386.538,-52.5 386.538,-52.5 386.538,-46.5 392.538,-40.5 398.538,-40.5"/>
<text text-anchor="middle" x="487.855" y="-171.3" font-family="Times,serif" font-size="14.00">CommentsController</text>
<polyline fill="none" stroke="black" points="386.538,-164.5 589.173,-164.5 "/>
<text text-anchor="start" x="394.538" y="-146.5" font-family="Times,serif" font-size="14.00">_one_time_conditions_valid_60?</text>
<text text-anchor="start" x="394.538" y="-129.7" font-family="Times,serif" font-size="14.00">create</text>
<polyline fill="none" stroke="black" points="386.538,-122.9 589.173,-122.9 "/>
<polyline fill="none" stroke="black" points="386.538,-98.9 589.173,-98.9 "/>
<text text-anchor="start" x="394.538" y="-80.9" font-family="Times,serif" font-size="14.00">_layout</text>
<text text-anchor="start" x="394.538" y="-64.1" font-family="Times,serif" font-size="14.00">comment_params</text>
<text text-anchor="start" x="394.538" y="-47.3" font-family="Times,serif" font-size="14.00">load_commentable</text>
</g>
<!-- ApplicationController&#45;&gt;CommentsController -->
<g id="edge1" class="edge"><title>ApplicationController&#45;&gt;CommentsController</title>
<path fill="none" stroke="black" d="M380.202,-205.952C385.281,-201.656 390.453,-197.282 395.645,-192.891"/>
<polyline fill="none" stroke="black" points="399.618,-189.53 395.8,-192.759 "/>
</g>
<!-- HomeController -->
<g id="node4" class="node"><title>HomeController</title>
<path fill="none" stroke="black" d="M93.8424,-63.1844C93.8424,-63.1844 177.601,-63.1844 177.601,-63.1844 183.601,-63.1844 189.601,-69.1844 189.601,-75.1844 189.601,-75.1844 189.601,-149.584 189.601,-149.584 189.601,-155.584 183.601,-161.584 177.601,-161.584 177.601,-161.584 93.8424,-161.584 93.8424,-161.584 87.8424,-161.584 81.8424,-155.584 81.8424,-149.584 81.8424,-149.584 81.8424,-75.1844 81.8424,-75.1844 81.8424,-69.1844 87.8424,-63.1844 93.8424,-63.1844"/>
<text text-anchor="middle" x="135.722" y="-143.584" font-family="Times,serif" font-size="14.00">HomeController</text>
<polyline fill="none" stroke="black" points="81.8424,-136.784 189.601,-136.784 "/>
<text text-anchor="start" x="89.8424" y="-118.784" font-family="Times,serif" font-size="14.00">index</text>
<polyline fill="none" stroke="black" points="81.8424,-111.984 189.601,-111.984 "/>
<polyline fill="none" stroke="black" points="81.8424,-87.9844 189.601,-87.9844 "/>
<text text-anchor="start" x="89.8424" y="-69.9844" font-family="Times,serif" font-size="14.00">_layout</text>
</g>
<!-- ApplicationController&#45;&gt;HomeController -->
<g id="edge2" class="edge"><title>ApplicationController&#45;&gt;HomeController</title>
<path fill="none" stroke="black" d="M244.813,-206.058C228.046,-191.661 210.203,-176.339 193.909,-162.348"/>
<polyline fill="none" stroke="black" points="189.801,-158.821 193.595,-162.078 "/>
</g>
<!-- OmniauthCallbacksController -->
<g id="node5" class="node"><title>OmniauthCallbacksController</title>
<path fill="none" stroke="black" d="M12,-368.319C12,-368.319 172.745,-368.319 172.745,-368.319 178.745,-368.319 184.745,-374.319 184.745,-380.319 184.745,-380.319 184.745,-471.519 184.745,-471.519 184.745,-477.519 178.745,-483.519 172.745,-483.519 172.745,-483.519 12,-483.519 12,-483.519 6,-483.519 0,-477.519 0,-471.519 0,-471.519 0,-380.319 0,-380.319 0,-374.319 6,-368.319 12,-368.319"/>
<text text-anchor="middle" x="92.3726" y="-465.519" font-family="Times,serif" font-size="14.00">OmniauthCallbacksController</text>
<polyline fill="none" stroke="black" points="0,-458.719 184.745,-458.719 "/>
<text text-anchor="start" x="8" y="-440.719" font-family="Times,serif" font-size="14.00">all</text>
<text text-anchor="start" x="8" y="-423.919" font-family="Times,serif" font-size="14.00">twitter</text>
<polyline fill="none" stroke="black" points="0,-417.119 184.745,-417.119 "/>
<polyline fill="none" stroke="black" points="0,-393.119 184.745,-393.119 "/>
<text text-anchor="start" x="8" y="-375.119" font-family="Times,serif" font-size="14.00">_layout</text>
</g>
<!-- ApplicationController&#45;&gt;OmniauthCallbacksController -->
<g id="edge3" class="edge"><title>ApplicationController&#45;&gt;OmniauthCallbacksController</title>
<path fill="none" stroke="black" d="M233.907,-321.344C214.77,-335.484 194.225,-350.664 174.885,-364.954"/>
<polyline fill="none" stroke="black" points="170.518,-368.18 174.54,-365.208 "/>
</g>
<!-- PostsController -->
<g id="node6" class="node"><title>PostsController</title>
<path fill="none" stroke="black" d="M433.629,-300.145C433.629,-300.145 612.263,-300.145 612.263,-300.145 618.263,-300.145 624.263,-306.145 624.263,-312.145 624.263,-312.145 624.263,-554.545 624.263,-554.545 624.263,-560.545 618.263,-566.545 612.263,-566.545 612.263,-566.545 433.629,-566.545 433.629,-566.545 427.629,-566.545 421.629,-560.545 421.629,-554.545 421.629,-554.545 421.629,-312.145 421.629,-312.145 421.629,-306.145 427.629,-300.145 433.629,-300.145"/>
<text text-anchor="middle" x="522.946" y="-548.545" font-family="Times,serif" font-size="14.00">PostsController</text>
<polyline fill="none" stroke="black" points="421.629,-541.745 624.263,-541.745 "/>
<text text-anchor="start" x="429.629" y="-523.745" font-family="Times,serif" font-size="14.00">_one_time_conditions_valid_76?</text>
<text text-anchor="start" x="429.629" y="-506.945" font-family="Times,serif" font-size="14.00">_one_time_conditions_valid_80?</text>
<text text-anchor="start" x="429.629" y="-490.145" font-family="Times,serif" font-size="14.00">create</text>
<text text-anchor="start" x="429.629" y="-473.345" font-family="Times,serif" font-size="14.00">destroy</text>
<text text-anchor="start" x="429.629" y="-456.545" font-family="Times,serif" font-size="14.00">edit</text>
<text text-anchor="start" x="429.629" y="-439.745" font-family="Times,serif" font-size="14.00">index</text>
<text text-anchor="start" x="429.629" y="-422.945" font-family="Times,serif" font-size="14.00">new</text>
<text text-anchor="start" x="429.629" y="-406.145" font-family="Times,serif" font-size="14.00">show</text>
<text text-anchor="start" x="429.629" y="-389.345" font-family="Times,serif" font-size="14.00">update</text>
<polyline fill="none" stroke="black" points="421.629,-382.545 624.263,-382.545 "/>
<polyline fill="none" stroke="black" points="421.629,-358.545 624.263,-358.545 "/>
<text text-anchor="start" x="429.629" y="-340.545" font-family="Times,serif" font-size="14.00">_layout</text>
<text text-anchor="start" x="429.629" y="-323.745" font-family="Times,serif" font-size="14.00">post_params</text>
<text text-anchor="start" x="429.629" y="-306.945" font-family="Times,serif" font-size="14.00">set_post</text>
</g>
<!-- ApplicationController&#45;&gt;PostsController -->
<g id="edge4" class="edge"><title>ApplicationController&#45;&gt;PostsController</title>
<path fill="none" stroke="black" d="M383.668,-321.366C394.521,-330.092 405.908,-339.247 417.297,-348.404"/>
<polyline fill="none" stroke="black" points="421.493,-351.777 417.596,-348.644 "/>
</g>
<!-- ProjectsController -->
<g id="node7" class="node"><title>ProjectsController</title>
<path fill="none" stroke="black" d="M208.511,-382.064C208.511,-382.064 394.146,-382.064 394.146,-382.064 400.146,-382.064 406.146,-388.064 406.146,-394.064 406.146,-394.064 406.146,-602.864 406.146,-602.864 406.146,-608.864 400.146,-614.864 394.146,-614.864 394.146,-614.864 208.511,-614.864 208.511,-614.864 202.511,-614.864 196.511,-608.864 196.511,-602.864 196.511,-602.864 196.511,-394.064 196.511,-394.064 196.511,-388.064 202.511,-382.064 208.511,-382.064"/>
<text text-anchor="middle" x="301.329" y="-596.864" font-family="Times,serif" font-size="14.00">ProjectsController</text>
<polyline fill="none" stroke="black" points="196.511,-590.064 406.146,-590.064 "/>
<text text-anchor="start" x="204.511" y="-572.064" font-family="Times,serif" font-size="14.00">_one_time_conditions_valid_100?</text>
<text text-anchor="start" x="204.511" y="-555.264" font-family="Times,serif" font-size="14.00">create</text>
<text text-anchor="start" x="204.511" y="-538.464" font-family="Times,serif" font-size="14.00">edit</text>
<text text-anchor="start" x="204.511" y="-521.664" font-family="Times,serif" font-size="14.00">index</text>
<text text-anchor="start" x="204.511" y="-504.864" font-family="Times,serif" font-size="14.00">new</text>
<text text-anchor="start" x="204.511" y="-488.064" font-family="Times,serif" font-size="14.00">show</text>
<text text-anchor="start" x="204.511" y="-471.264" font-family="Times,serif" font-size="14.00">update</text>
<polyline fill="none" stroke="black" points="196.511,-464.464 406.146,-464.464 "/>
<polyline fill="none" stroke="black" points="196.511,-440.464 406.146,-440.464 "/>
<text text-anchor="start" x="204.511" y="-422.464" font-family="Times,serif" font-size="14.00">_layout</text>
<text text-anchor="start" x="204.511" y="-405.664" font-family="Times,serif" font-size="14.00">project_params</text>
<text text-anchor="start" x="204.511" y="-388.864" font-family="Times,serif" font-size="14.00">set_project</text>
</g>
<!-- ApplicationController&#45;&gt;ProjectsController -->
<g id="edge5" class="edge"><title>ApplicationController&#45;&gt;ProjectsController</title>
<path fill="none" stroke="black" d="M309.326,-321.425C308.569,-338.178 307.713,-357.14 306.849,-376.272"/>
<polyline fill="none" stroke="black" points="306.605,-381.671 306.83,-376.676 "/>
</g>
<!-- Users::PasswordsController -->
<g id="node8" class="node"><title>Users::PasswordsController</title>
<path fill="none" stroke="black" d="M652,-640.5C652,-640.5 800.324,-640.5 800.324,-640.5 806.324,-640.5 812.324,-646.5 812.324,-652.5 812.324,-652.5 812.324,-742.9 812.324,-742.9 812.324,-748.9 806.324,-754.9 800.324,-754.9 800.324,-754.9 652,-754.9 652,-754.9 646,-754.9 640,-748.9 640,-742.9 640,-742.9 640,-652.5 640,-652.5 640,-646.5 646,-640.5 652,-640.5"/>
<text text-anchor="middle" x="726.162" y="-736.9" font-family="Times,serif" font-size="14.00">Users::PasswordsController</text>
<polyline fill="none" stroke="black" points="640,-730.1 812.324,-730.1 "/>
<polyline fill="none" stroke="black" points="640,-706.1 812.324,-706.1 "/>
<polyline fill="none" stroke="black" points="640,-682.1 812.324,-682.1 "/>
<text text-anchor="start" x="648" y="-664.1" font-family="Times,serif" font-size="14.00">_layout</text>
<text text-anchor="start" x="648" y="-647.3" font-family="Times,serif" font-size="14.00">resource_params</text>
</g>
<!-- Users::RegistrationsController -->
<g id="node9" class="node"><title>Users::RegistrationsController</title>
<path fill="none" stroke="black" d="M652,-0.5C652,-0.5 815.09,-0.5 815.09,-0.5 821.09,-0.5 827.09,-6.5 827.09,-12.5 827.09,-12.5 827.09,-120.5 827.09,-120.5 827.09,-126.5 821.09,-132.5 815.09,-132.5 815.09,-132.5 652,-132.5 652,-132.5 646,-132.5 640,-126.5 640,-120.5 640,-120.5 640,-12.5 640,-12.5 640,-6.5 646,-0.5 652,-0.5"/>
<text text-anchor="middle" x="733.545" y="-114.5" font-family="Times,serif" font-size="14.00">Users::RegistrationsController</text>
<polyline fill="none" stroke="black" points="640,-107.7 827.09,-107.7 "/>
<text text-anchor="start" x="648" y="-89.7" font-family="Times,serif" font-size="14.00">build_resource</text>
<text text-anchor="start" x="648" y="-72.9" font-family="Times,serif" font-size="14.00">create</text>
<polyline fill="none" stroke="black" points="640,-66.1 827.09,-66.1 "/>
<polyline fill="none" stroke="black" points="640,-42.1 827.09,-42.1 "/>
<text text-anchor="start" x="648" y="-24.1" font-family="Times,serif" font-size="14.00">_layout</text>
<text text-anchor="start" x="648" y="-7.3" font-family="Times,serif" font-size="14.00">sign_up_params</text>
</g>
<!-- Devise::PasswordsController -->
<g id="node10" class="node"><title>Devise::PasswordsController</title>
<ellipse fill="none" stroke="black" cx="958.8" cy="-697.699" rx="123.88" ry="18"/>
<text text-anchor="middle" x="958.8" y="-692.099" font-family="Times,serif" font-size="14.00">Devise::PasswordsController</text>
</g>
<!-- Devise::PasswordsController&#45;&gt;Users::PasswordsController -->
<g id="edge6" class="edge"><title>Devise::PasswordsController&#45;&gt;Users::PasswordsController</title>
<path fill="none" stroke="black" d="M834.988,-697.7C829.173,-697.7 823.383,-697.7 817.676,-697.7"/>
<polyline fill="none" stroke="black" points="812.46,-697.7 817.46,-697.7 "/>
</g>
<!-- Devise::RegistrationsController -->
<g id="node11" class="node"><title>Devise::RegistrationsController</title>
<ellipse fill="none" stroke="black" cx="980.021" cy="-66.498" rx="133.75" ry="18"/>
<text text-anchor="middle" x="980.021" y="-60.898" font-family="Times,serif" font-size="14.00">Devise::RegistrationsController</text>
</g>
<!-- Devise::RegistrationsController&#45;&gt;Users::RegistrationsController -->
<g id="edge7" class="edge"><title>Devise::RegistrationsController&#45;&gt;Users::RegistrationsController</title>
<path fill="none" stroke="black" d="M845.964,-66.4991C841.419,-66.4991 836.895,-66.4992 832.414,-66.4992"/>
<polyline fill="none" stroke="black" points="827.177,-66.4992 832.177,-66.4991 "/>
</g>
</g>
</svg>
