<?xml version="1.0" encoding="UTF-8" standalone="no"?>
<!DOCTYPE svg PUBLIC "-//W3C//DTD SVG 1.1//EN"
 "http://www.w3.org/Graphics/SVG/1.1/DTD/svg11.dtd">
<!-- Generated by graphviz version 2.34.0 (20131025.1729)
 -->
<!-- Title: models_diagram Pages: 1 -->
<svg width="585pt" height="926pt"
 viewBox="0.00 0.00 585.00 926.00" xmlns="http://www.w3.org/2000/svg" xmlns:xlink="http://www.w3.org/1999/xlink">
<g id="graph0" class="graph" transform="scale(1 1) rotate(0) translate(4 922)">
<title>models_diagram</title>
<polygon fill="white" stroke="white" points="-4,4 -4,-922 581,-922 581,4 -4,4"/>
<!-- _diagram_info -->
<g id="node1" class="node"><title>_diagram_info</title>
<text text-anchor="start" x="7.31226" y="-901" font-family="Times,serif" font-size="13.00">Models diagram</text>
<text text-anchor="start" x="7.31226" y="-885.4" font-family="Times,serif" font-size="13.00">Date: Oct 25 2013 &#45; 10:40</text>
<text text-anchor="start" x="7.31226" y="-869.8" font-family="Times,serif" font-size="13.00">Migration version: 20131024212303</text>
<text text-anchor="start" x="7.31226" y="-854.2" font-family="Times,serif" font-size="13.00">Generated by RailRoady 1.1.1</text>
<text text-anchor="start" x="7.31226" y="-838.6" font-family="Times,serif" font-size="13.00">http://railroady.prestonlee.com</text>
</g>
<!-- Comment -->
<g id="node2" class="node"><title>Comment</title>
<path fill="none" stroke="black" d="M255.102,-0.4C255.102,-0.4 392.898,-0.4 392.898,-0.4 398.898,-0.4 404.898,-6.4 404.898,-12.4 404.898,-12.4 404.898,-239.6 404.898,-239.6 404.898,-245.6 398.898,-251.6 392.898,-251.6 392.898,-251.6 255.102,-251.6 255.102,-251.6 249.102,-251.6 243.102,-245.6 243.102,-239.6 243.102,-239.6 243.102,-12.4 243.102,-12.4 243.102,-6.4 249.102,-0.4 255.102,-0.4"/>
<text text-anchor="middle" x="324" y="-233.6" font-family="Times,serif" font-size="14.00">Comment</text>
<polyline fill="none" stroke="black" points="243.102,-226.8 404.898,-226.8 "/>
<text text-anchor="start" x="251.102" y="-208.8" font-family="Times,serif" font-size="14.00">id :integer</text>
<text text-anchor="start" x="251.102" y="-192" font-family="Times,serif" font-size="14.00">author :string</text>
<text text-anchor="start" x="251.102" y="-175.2" font-family="Times,serif" font-size="14.00">author_url :string</text>
<text text-anchor="start" x="251.102" y="-158.4" font-family="Times,serif" font-size="14.00">author_email :string</text>
<text text-anchor="start" x="251.102" y="-141.6" font-family="Times,serif" font-size="14.00">user_ip :string</text>
<text text-anchor="start" x="251.102" y="-124.8" font-family="Times,serif" font-size="14.00">user_agent :string</text>
<text text-anchor="start" x="251.102" y="-108" font-family="Times,serif" font-size="14.00">referrer :string</text>
<text text-anchor="start" x="251.102" y="-91.2" font-family="Times,serif" font-size="14.00">content :text</text>
<text text-anchor="start" x="251.102" y="-74.4" font-family="Times,serif" font-size="14.00">approved :boolean</text>
<text text-anchor="start" x="251.102" y="-57.6" font-family="Times,serif" font-size="14.00">created_at :datetime</text>
<text text-anchor="start" x="251.102" y="-40.8" font-family="Times,serif" font-size="14.00">updated_at :datetime</text>
<text text-anchor="start" x="251.102" y="-24" font-family="Times,serif" font-size="14.00">commentable_id :integer</text>
<text text-anchor="start" x="251.102" y="-7.2" font-family="Times,serif" font-size="14.00">commentable_type :string</text>
</g>
<!-- Post -->
<g id="node3" class="node"><title>Post</title>
<path fill="none" stroke="black" d="M269.495,-288.8C269.495,-288.8 378.505,-288.8 378.505,-288.8 384.505,-288.8 390.505,-294.8 390.505,-300.8 390.505,-300.8 390.505,-427.2 390.505,-427.2 390.505,-433.2 384.505,-439.2 378.505,-439.2 378.505,-439.2 269.495,-439.2 269.495,-439.2 263.495,-439.2 257.495,-433.2 257.495,-427.2 257.495,-427.2 257.495,-300.8 257.495,-300.8 257.495,-294.8 263.495,-288.8 269.495,-288.8"/>
<text text-anchor="middle" x="324" y="-421.2" font-family="Times,serif" font-size="14.00">Post</text>
<polyline fill="none" stroke="black" points="257.495,-414.4 390.505,-414.4 "/>
<text text-anchor="start" x="265.495" y="-396.4" font-family="Times,serif" font-size="14.00">id :integer</text>
<text text-anchor="start" x="265.495" y="-379.6" font-family="Times,serif" font-size="14.00">title :string</text>
<text text-anchor="start" x="265.495" y="-362.8" font-family="Times,serif" font-size="14.00">body :text</text>
<text text-anchor="start" x="265.495" y="-346" font-family="Times,serif" font-size="14.00">created_at :datetime</text>
<text text-anchor="start" x="265.495" y="-329.2" font-family="Times,serif" font-size="14.00">updated_at :datetime</text>
<text text-anchor="start" x="265.495" y="-312.4" font-family="Times,serif" font-size="14.00">author_id :integer</text>
<text text-anchor="start" x="265.495" y="-295.6" font-family="Times,serif" font-size="14.00">published :boolean</text>
</g>
<!-- Post&#45;&gt;Comment -->
<g id="edge2" class="edge"><title>Post&#45;&gt;Comment</title>
<path fill="none" stroke="#4304df" d="M324,-280.566C324,-274.605 324,-268.511 324,-262.352"/>
<ellipse fill="none" stroke="#4304df" cx="324" cy="-284.652" rx="4" ry="4"/>
<polygon fill="#4304df" stroke="#4304df" points="324,-261.938 328.5,-251.938 324,-256.938 324,-251.938 324,-251.938 324,-251.938 324,-256.938 319.5,-251.938 324,-261.938 324,-261.938"/>
</g>
<!-- Project -->
<g id="node4" class="node"><title>Project</title>
<path fill="none" stroke="black" d="M430.65,-305.6C430.65,-305.6 565.35,-305.6 565.35,-305.6 571.35,-305.6 577.35,-311.6 577.35,-317.6 577.35,-317.6 577.35,-410.4 577.35,-410.4 577.35,-416.4 571.35,-422.4 565.35,-422.4 565.35,-422.4 430.65,-422.4 430.65,-422.4 424.65,-422.4 418.65,-416.4 418.65,-410.4 418.65,-410.4 418.65,-317.6 418.65,-317.6 418.65,-311.6 424.65,-305.6 430.65,-305.6"/>
<text text-anchor="middle" x="498" y="-404.4" font-family="Times,serif" font-size="14.00">Project</text>
<polyline fill="none" stroke="black" points="418.65,-397.6 577.35,-397.6 "/>
<text text-anchor="start" x="426.65" y="-379.6" font-family="Times,serif" font-size="14.00">id :integer</text>
<text text-anchor="start" x="426.65" y="-362.8" font-family="Times,serif" font-size="14.00">name :string</text>
<text text-anchor="start" x="426.65" y="-346" font-family="Times,serif" font-size="14.00">technologies_used :string</text>
<text text-anchor="start" x="426.65" y="-329.2" font-family="Times,serif" font-size="14.00">created_at :datetime</text>
<text text-anchor="start" x="426.65" y="-312.4" font-family="Times,serif" font-size="14.00">updated_at :datetime</text>
</g>
<!-- Project&#45;&gt;Comment -->
<g id="edge4" class="edge"><title>Project&#45;&gt;Comment</title>
<path fill="none" stroke="#84f77f" d="M450.738,-298.898C438.489,-282.283 424.9,-263.853 411.302,-245.41"/>
<ellipse fill="none" stroke="#84f77f" cx="453.284" cy="-302.35" rx="4.00002" ry="4.00002"/>
<polygon fill="#84f77f" stroke="#84f77f" points="410.993,-244.99 408.68,-234.271 408.025,-240.965 405.058,-236.941 405.058,-236.941 405.058,-236.941 408.025,-240.965 401.436,-239.611 410.993,-244.99 410.993,-244.99"/>
</g>
<!-- User -->
<g id="node5" class="node"><title>User</title>
<path fill="none" stroke="black" d="M287.722,-476.8C287.722,-476.8 468.278,-476.8 468.278,-476.8 474.278,-476.8 480.278,-482.8 480.278,-488.8 480.278,-488.8 480.278,-783.2 480.278,-783.2 480.278,-789.2 474.278,-795.2 468.278,-795.2 468.278,-795.2 287.722,-795.2 287.722,-795.2 281.722,-795.2 275.722,-789.2 275.722,-783.2 275.722,-783.2 275.722,-488.8 275.722,-488.8 275.722,-482.8 281.722,-476.8 287.722,-476.8"/>
<text text-anchor="middle" x="378" y="-777.2" font-family="Times,serif" font-size="14.00">User</text>
<polyline fill="none" stroke="black" points="275.722,-770.4 480.278,-770.4 "/>
<text text-anchor="start" x="283.722" y="-752.4" font-family="Times,serif" font-size="14.00">id :integer</text>
<text text-anchor="start" x="283.722" y="-735.6" font-family="Times,serif" font-size="14.00">name :string</text>
<text text-anchor="start" x="283.722" y="-718.8" font-family="Times,serif" font-size="14.00">created_at :datetime</text>
<text text-anchor="start" x="283.722" y="-702" font-family="Times,serif" font-size="14.00">updated_at :datetime</text>
<text text-anchor="start" x="283.722" y="-685.2" font-family="Times,serif" font-size="14.00">email :string</text>
<text text-anchor="start" x="283.722" y="-668.4" font-family="Times,serif" font-size="14.00">encrypted_password :string</text>
<text text-anchor="start" x="283.722" y="-651.6" font-family="Times,serif" font-size="14.00">reset_password_token :string</text>
<text text-anchor="start" x="283.722" y="-634.8" font-family="Times,serif" font-size="14.00">reset_password_sent_at :datetime</text>
<text text-anchor="start" x="283.722" y="-618" font-family="Times,serif" font-size="14.00">remember_created_at :datetime</text>
<text text-anchor="start" x="283.722" y="-601.2" font-family="Times,serif" font-size="14.00">sign_in_count :integer</text>
<text text-anchor="start" x="283.722" y="-584.4" font-family="Times,serif" font-size="14.00">current_sign_in_at :datetime</text>
<text text-anchor="start" x="283.722" y="-567.6" font-family="Times,serif" font-size="14.00">last_sign_in_at :datetime</text>
<text text-anchor="start" x="283.722" y="-550.8" font-family="Times,serif" font-size="14.00">current_sign_in_ip :string</text>
<text text-anchor="start" x="283.722" y="-534" font-family="Times,serif" font-size="14.00">last_sign_in_ip :string</text>
<text text-anchor="start" x="283.722" y="-517.2" font-family="Times,serif" font-size="14.00">role :string</text>
<text text-anchor="start" x="283.722" y="-500.4" font-family="Times,serif" font-size="14.00">provider :string</text>
<text text-anchor="start" x="283.722" y="-483.6" font-family="Times,serif" font-size="14.00">uid :string</text>
</g>
<!-- User&#45;&gt;Post -->
<g id="edge6" class="edge"><title>User&#45;&gt;Post</title>
<path fill="none" stroke="#bee3a7" d="M344.731,-468.654C343.442,-462.211 342.174,-455.869 340.938,-449.691"/>
<ellipse fill="none" stroke="#bee3a7" cx="345.569" cy="-472.846" rx="4.00001" ry="4.00001"/>
<polygon fill="#bee3a7" stroke="#bee3a7" points="340.853,-449.266 343.305,-438.577 339.873,-444.363 338.892,-439.46 338.892,-439.46 338.892,-439.46 339.873,-444.363 334.479,-440.342 340.853,-449.266 340.853,-449.266"/>
</g>
<!-- ActiveRecord::Base -->
<g id="node6" class="node"><title>ActiveRecord::Base</title>
<ellipse fill="none" stroke="black" cx="313" cy="-875" rx="88.2033" ry="18"/>
<text text-anchor="middle" x="313" y="-869.4" font-family="Times,serif" font-size="14.00">ActiveRecord::Base</text>
</g>
<!-- ActiveRecord::Base&#45;&gt;Comment -->
<g id="edge1" class="edge"><title>ActiveRecord::Base&#45;&gt;Comment</title>
<path fill="none" stroke="black" d="M289.093,-857.622C270.974,-843.643 247.469,-821.746 237,-796 151.935,-586.803 192.185,-506.825 248,-288 250.65,-277.611 253.977,-267.082 257.749,-256.64"/>
<polyline fill="none" stroke="black" points="259.513,-251.85 257.785,-256.542 "/>
</g>
<!-- ActiveRecord::Base&#45;&gt;Post -->
<g id="edge3" class="edge"><title>ActiveRecord::Base&#45;&gt;Post</title>
<path fill="none" stroke="black" d="M299.287,-856.957C288.131,-841.924 273.25,-818.901 267,-796 229.556,-658.796 233.58,-614.24 267,-476 269.582,-465.318 273.38,-454.511 277.809,-444.047"/>
<polyline fill="none" stroke="black" points="279.886,-439.265 277.894,-443.851 "/>
</g>
<!-- ActiveRecord::Base&#45;&gt;Project -->
<g id="edge5" class="edge"><title>ActiveRecord::Base&#45;&gt;Project</title>
<path fill="none" stroke="black" d="M378.789,-862.911C417.828,-852.612 464.371,-833.004 489,-796 563.378,-684.252 537.952,-517.525 516.062,-427.712"/>
<polyline fill="none" stroke="black" points="514.825,-422.701 516.023,-427.555 "/>
</g>
<!-- ActiveRecord::Base&#45;&gt;User -->
<g id="edge7" class="edge"><title>ActiveRecord::Base&#45;&gt;User</title>
<path fill="none" stroke="black" d="M317.675,-856.956C321.371,-843.48 326.943,-823.161 333.235,-800.221"/>
<polyline fill="none" stroke="black" points="334.588,-795.288 333.265,-800.11 "/>
</g>
</g>
</svg>
