<?xml version="1.0" encoding="UTF-8" standalone="no"?>
<!DOCTYPE svg PUBLIC "-//W3C//DTD SVG 1.1//EN"
 "http://www.w3.org/Graphics/SVG/1.1/DTD/svg11.dtd">
<!-- Generated by graphviz version 2.34.0 (20131025.1729)
 -->
<!-- Title: models_diagram Pages: 1 -->
<svg width="441pt" height="310pt"
 viewBox="0.00 0.00 441.00 310.00" xmlns="http://www.w3.org/2000/svg" xmlns:xlink="http://www.w3.org/1999/xlink">
<g id="graph0" class="graph" transform="scale(1 1) rotate(0) translate(4 306)">
<title>models_diagram</title>
<polygon fill="white" stroke="white" points="-4,4 -4,-306 437,-306 437,4 -4,4"/>
<!-- _diagram_info -->
<g id="node1" class="node"><title>_diagram_info</title>
<text text-anchor="start" x="7.31226" y="-285" font-family="Times,serif" font-size="13.00">Models diagram</text>
<text text-anchor="start" x="7.31226" y="-269.4" font-family="Times,serif" font-size="13.00">Date: Oct 25 2013 &#45; 10:40</text>
<text text-anchor="start" x="7.31226" y="-253.8" font-family="Times,serif" font-size="13.00">Migration version: 20131024212303</text>
<text text-anchor="start" x="7.31226" y="-238.2" font-family="Times,serif" font-size="13.00">Generated by RailRoady 1.1.1</text>
<text text-anchor="start" x="7.31226" y="-222.6" font-family="Times,serif" font-size="13.00">http://railroady.prestonlee.com</text>
</g>
<!-- Comment -->
<g id="node2" class="node"><title>Comment</title>
<ellipse fill="none" stroke="black" cx="308" cy="-18" rx="49.1903" ry="18"/>
<text text-anchor="middle" x="308" y="-12.4" font-family="Times,serif" font-size="14.00">Comment</text>
</g>
<!-- Post -->
<g id="node3" class="node"><title>Post</title>
<ellipse fill="none" stroke="black" cx="308" cy="-90" rx="27.5142" ry="18"/>
<text text-anchor="middle" x="308" y="-84.4" font-family="Times,serif" font-size="14.00">Post</text>
</g>
<!-- Post&#45;&gt;Comment -->
<g id="edge2" class="edge"><title>Post&#45;&gt;Comment</title>
<path fill="none" stroke="#a7105c" d="M308,-63.6398C308,-58.0629 308,-52.1319 308,-46.4761"/>
<ellipse fill="none" stroke="#a7105c" cx="308" cy="-67.6966" rx="4" ry="4"/>
<polygon fill="#a7105c" stroke="#a7105c" points="308,-46.1043 312.5,-36.1043 308,-41.1043 308,-36.1043 308,-36.1043 308,-36.1043 308,-41.1043 303.5,-36.1044 308,-46.1043 308,-46.1043"/>
</g>
<!-- Project -->
<g id="node4" class="node"><title>Project</title>
<ellipse fill="none" stroke="black" cx="395" cy="-90" rx="38.0859" ry="18"/>
<text text-anchor="middle" x="395" y="-84.4" font-family="Times,serif" font-size="14.00">Project</text>
</g>
<!-- Project&#45;&gt;Comment -->
<g id="edge4" class="edge"><title>Project&#45;&gt;Comment</title>
<path fill="none" stroke="#bc3551" d="M370.145,-69.0018C359.202,-60.1972 346.318,-49.8304 335.126,-40.8258"/>
<ellipse fill="none" stroke="#bc3551" cx="373.433" cy="-71.6473" rx="4.00002" ry="4.00002"/>
<polygon fill="#bc3551" stroke="#bc3551" points="335.12,-40.8204 330.149,-31.0455 331.224,-37.686 327.328,-34.5516 327.328,-34.5516 327.328,-34.5516 331.224,-37.686 324.507,-38.0576 335.12,-40.8204 335.12,-40.8204"/>
</g>
<!-- User -->
<g id="node5" class="node"><title>User</title>
<ellipse fill="none" stroke="black" cx="341" cy="-162" rx="28.9087" ry="18"/>
<text text-anchor="middle" x="341" y="-156.4" font-family="Times,serif" font-size="14.00">User</text>
</g>
<!-- User&#45;&gt;Post -->
<g id="edge6" class="edge"><title>User&#45;&gt;Post</title>
<path fill="none" stroke="#c3c94b" d="M329.662,-136.95C326.583,-130.418 323.237,-123.322 320.117,-116.703"/>
<ellipse fill="none" stroke="#c3c94b" cx="331.474" cy="-140.793" rx="4.00002" ry="4.00002"/>
<polygon fill="#c3c94b" stroke="#c3c94b" points="320.029,-116.515 319.835,-105.551 317.897,-111.993 315.764,-107.47 315.764,-107.47 315.764,-107.47 317.897,-111.993 311.694,-109.389 320.029,-116.515 320.029,-116.515"/>
</g>
<!-- ActiveRecord::Base -->
<g id="node6" class="node"><title>ActiveRecord::Base</title>
<ellipse fill="none" stroke="black" cx="313" cy="-259" rx="88.2033" ry="18"/>
<text text-anchor="middle" x="313" y="-253.4" font-family="Times,serif" font-size="14.00">ActiveRecord::Base</text>
</g>
<!-- ActiveRecord::Base&#45;&gt;Comment -->
<g id="edge1" class="edge"><title>ActiveRecord::Base&#45;&gt;Comment</title>
<path fill="none" stroke="black" d="M303.275,-241.081C285.611,-208.103 251.78,-133.106 271,-72 274.737,-60.1177 282.19,-48.5754 289.433,-39.3122"/>
<polyline fill="none" stroke="black" points="292.732,-35.2234 289.592,-39.1147 "/>
</g>
<!-- ActiveRecord::Base&#45;&gt;Post -->
<g id="edge3" class="edge"><title>ActiveRecord::Base&#45;&gt;Post</title>
<path fill="none" stroke="black" d="M310.14,-240.712C307.686,-224.947 304.34,-200.982 303,-180 301.981,-164.033 302.248,-159.982 303,-144 303.477,-133.874 304.463,-122.695 305.434,-113.225"/>
<polyline fill="none" stroke="black" points="305.969,-108.157 305.444,-113.129 "/>
</g>
<!-- ActiveRecord::Base&#45;&gt;Project -->
<g id="edge5" class="edge"><title>ActiveRecord::Base&#45;&gt;Project</title>
<path fill="none" stroke="black" d="M331.746,-241.338C346.954,-226.715 367.665,-204.073 379,-180 389.025,-158.708 392.796,-131.835 394.199,-113.217"/>
<polyline fill="none" stroke="black" points="394.536,-108.196 394.201,-113.185 "/>
</g>
<!-- ActiveRecord::Base&#45;&gt;User -->
<g id="edge7" class="edge"><title>ActiveRecord::Base&#45;&gt;User</title>
<path fill="none" stroke="black" d="M318.006,-241.016C322.625,-225.345 329.508,-201.99 334.54,-184.918"/>
<polyline fill="none" stroke="black" points="336.037,-179.837 334.624,-184.633 "/>
</g>
</g>
</svg>
